<?xml version="1.0" encoding="utf-8"?>

<!-- Generator: Adobe Illustrator 25.0.1, SVG Export Plug-In . SVG Version: 6.00 Build 0)  -->

<svg version="1.1" id="Layer_1" xmlns="http://www.w3.org/2000/svg" xmlns:xlink="http://www.w3.org/1999/xlink" x="0px" y="0px"

	 width="164.54348px" height="56px" viewBox="0 0 82.27174 28" style="enable-background:new 0 0 82.27174 28;" xml:space="preserve"

	>

<style type="text/css">

	.st0{fill:#BE1E2D;}

	.st1{fill:#231F20;}

	.st2{fill:#FFFFFF;}

</style>

<g>

	<path class="st0" d="M13.09694,4.58732c-0.15762,0-0.31417,0.0051-0.4701,0.01187l0.4701-1.51405

		c-0.10054,0-10.53115,0.11528-10.53115,10.05962h0.07779c-0.13633,0.68056-0.2088,1.38413-0.2088,2.10475

		c0,5.88856,4.7736,10.66216,10.66216,10.66216c5.88858,0,10.66216-4.7736,10.66216-10.66216

		C23.7591,9.36092,18.98553,4.58732,13.09694,4.58732z"/>

</g>

<g>

	<path class="st1" d="M31.62457,24.04413L31.19102,22.671h-3.54127c-0.05782,0.18109-0.13016,0.40041-0.21678,0.65783

		c-0.08674,0.25755-0.15908,0.49598-0.2169,0.7153h0.93957v1.37313h-3.70023v-1.37313h0.79489l3.00647-8.55681h2.55839

		l2.90521,8.55681h0.79501v1.37313h-3.80136v-1.37313H31.62457z M29.70224,17.88664

		c-0.02891-0.12508-0.06278-0.24787-0.10125-0.36847c-0.03859-0.12037-0.07718-0.24799-0.11565-0.38311h-0.04331l-0.23129,0.7661

		c-0.07718,0.24097-0.16391,0.51086-0.26021,0.80941c-0.09641,0.2988-0.19512,0.60231-0.29626,0.91066

		c-0.10113,0.30847-0.20008,0.61199-0.29626,0.91054c-0.09653,0.2988-0.18327,0.56868-0.26021,0.80941h2.68843L29.70224,17.88664z"

		/>

	<path class="st1" d="M41.74237,25.41726v-1.37313h0.89615v-7.19807h-2.54376v0.79356c0,1.04881-0.03871,2.02286-0.11565,2.92215

		c-0.07742,0.89965-0.25113,1.69818-0.52065,2.39557c-0.27,0.69739-0.65759,1.27938-1.16349,1.74608

		c-0.50589,0.46658-1.1924,0.7863-2.05963,0.95953l-0.4915-1.45732c0.53952-0.2019,0.97066-0.46416,1.29365-0.78643

		c0.32275-0.32226,0.57098-0.72884,0.74445-1.2195c0.17335-0.49053,0.28658-1.07978,0.33968-1.76773

		c0.05274-0.68796,0.07948-1.49349,0.07948-2.41698v-1.16893h-1.28639v-1.37313h8.80225v1.37313h-0.99728v7.19807h0.99728v1.37313

		H41.74237z"/>

	<path class="st1" d="M51.99022,16.84606h-1.04082v2.52936h2.0381c0.51073,0,0.98518,0.06508,1.42382,0.19513

		c0.4384,0.13016,0.81655,0.32057,1.1347,0.57098c0.31791,0.25065,0.56832,0.56626,0.75146,0.94671

		c0.18291,0.38081,0.2746,0.82163,0.2746,1.32257c0,0.51085-0.08202,0.95651-0.24557,1.33708

		c-0.16404,0.38069-0.39025,0.69376-0.67937,0.93945c-0.28912,0.24569-0.63388,0.42884-1.03357,0.5492

		c-0.39993,0.12061-0.84074,0.18073-1.32244,0.18073h-5.43469v-1.37313h1.02607v-7.19807h-1.02607v-1.37313h4.13378V16.84606z

		 M50.94939,20.71963v3.3245h1.85036c0.46235,0,0.84534-0.14141,1.14897-0.4246c0.30363-0.28295,0.45533-0.69788,0.45533-1.2449

		c0-0.27823-0.04597-0.52029-0.13742-0.72667c-0.09169-0.20625-0.21678-0.379-0.37573-0.51811

		c-0.15895-0.13912-0.33968-0.24218-0.54195-0.30944c-0.2025-0.06702-0.41928-0.10077-0.65057-0.10077H50.94939z"/>

	<path class="st1" d="M69.91288,20.27156c0,0.57824-0.11347,1.11304-0.34065,1.60442

		c-0.22718,0.4915-0.54872,0.92288-0.96413,1.29365c-0.41566,0.37114-0.91115,0.66739-1.486,0.88889

		c-0.57533,0.22186-1.21091,0.3519-1.90672,0.39037l-0.01452,0.96836h-1.99455v-0.96836

		c-0.73235-0.02891-1.3926-0.1494-1.98027-0.36146c-0.58792-0.21182-1.08655-0.49864-1.49591-0.85998

		c-0.40961-0.36134-0.72509-0.78776-0.94671-1.27914c-0.22186-0.4915-0.33242-1.03574-0.33242-1.63334

		c0-0.53953,0.11299-1.0551,0.33968-1.5466c0.22622-0.49138,0.54678-0.92506,0.96123-1.30091

		c0.41396-0.37573,0.91284-0.68155,1.49591-0.9178c0.58283-0.23601,1.23583-0.37331,1.9585-0.4119v-0.65045h1.99455l0.01452,0.66485

		c0.7442,0.03871,1.40639,0.17601,1.98632,0.41202c0.57993,0.23613,1.07059,0.53977,1.47173,0.91054

		c0.40089,0.37114,0.70767,0.79743,0.92033,1.27926C69.80667,19.23594,69.91288,19.74183,69.91288,20.27156z M60.48884,20.3439

		c0,0.76126,0.23856,1.36587,0.71566,1.81394c0.47686,0.44807,1.14413,0.7205,2.00181,0.81667v-5.33356

		c-0.41444,0.03859-0.79017,0.13512-1.12744,0.28912c-0.33751,0.15424-0.62396,0.34936-0.8601,0.58537

		c-0.23613,0.23625-0.41686,0.51085-0.54195,0.82393C60.5515,19.65256,60.48884,19.98752,60.48884,20.3439z M67.84599,20.31499

		c0-0.32747-0.05105-0.64549-0.15266-0.95397c-0.10162-0.30823-0.25912-0.58537-0.47227-0.83106

		c-0.21315-0.24581-0.48678-0.44807-0.82114-0.60715c-0.33411-0.15895-0.7292-0.25295-1.18453-0.28186v5.33356

		c0.34863-0.02891,0.68299-0.11565,1.00284-0.26021c0.31985-0.14444,0.59832-0.33242,0.83566-0.56372

		c0.23734-0.23117,0.42847-0.50336,0.57388-0.81655C67.77341,21.02097,67.84599,20.68129,67.84599,20.31499z"/>

	<path class="st1" d="M77.80471,24.04413L77.37115,22.671h-3.54127c-0.05782,0.18109-0.13017,0.40041-0.21678,0.65783

		c-0.08685,0.25755-0.15895,0.49598-0.21677,0.7153h0.93945v1.37313h-3.70023v-1.37313h0.79501l3.00635-8.55681h2.55827

		l2.90545,8.55681h0.79502v1.37313h-3.80161v-1.37313H77.80471z M75.88226,17.88664

		c-0.02879-0.12508-0.06267-0.24787-0.10114-0.36847c-0.03847-0.12037-0.07718-0.24799-0.11565-0.38311h-0.0433l-0.2313,0.7661

		c-0.07718,0.24097-0.16403,0.51086-0.26008,0.80941c-0.09653,0.2988-0.19525,0.60231-0.29638,0.91066

		c-0.10114,0.30847-0.20009,0.61199-0.29638,0.91054c-0.09629,0.2988-0.18314,0.56868-0.26009,0.80941h2.68844L75.88226,17.88664z"

		/>

</g>

<g>

	<g>

		<path class="st2" d="M18.071,20.43972h2.14962l0.08723,1.45249c-0.32953,0.15531-0.73127,0.27604-1.20558,0.36315

			c-0.47483,0.08721-0.87655,0.13076-1.20561,0.13076c-0.69726,0-1.19614-0.10172-1.49614-0.30507

			c-0.30049-0.20335-0.49889-0.67273-0.59553-1.40893c-0.54244,0.44577-1.05582,0.78932-1.5396,1.03127

			c-0.48437,0.24242-0.9346,0.42122-1.35086,0.53746c-0.41676,0.11624-0.78935,0.18388-1.1185,0.20335

			c-0.3295,0.0191-0.60049,0.02904-0.8134,0.02904c-0.89107,0-1.64627-0.17929-2.26589-0.53749

			c-0.62008-0.35807-1.12841-0.85693-1.52518-1.49602c-0.39714-0.63909-0.68264-1.39902-0.85695-2.28041

			c-0.17431-0.88116-0.26142-1.85423-0.26142-2.91962c0-0.87147,0.10163-1.74753,0.30498-2.62903

			c0.20335-0.88104,0.53746-1.67494,1.00223-2.38213c0.46477-0.70672,1.06489-1.2783,1.80112-1.71403

			c0.73586-0.43574,1.63636-0.6536,2.70175-0.6536c0.87147,0,1.64578,0.16478,2.32396,0.49381

			c0.67766,0.32965,1.2392,0.69726,1.68497,1.10396l0.55188-1.39441H18.071V20.43972z M15.71788,18.84195

			c0-1.27817,0.00448-2.53192,0.01452-3.76205c0.00956-1.22966,0.01452-2.47385,0.01452-3.73302

			c-0.17431-0.17419-0.39714-0.35311-0.66812-0.53734c-0.27145-0.18388-0.56201-0.35819-0.87157-0.52297

			c-0.31005-0.16426-0.62955-0.3-0.9587-0.4067c-0.32953-0.10621-0.63909-0.1598-0.92952-0.1598

			c-0.71675,0-1.31724,0.15534-1.80114,0.4649c-0.48434,0.30993-0.87653,0.72171-1.17655,1.23462

			c-0.30049,0.51338-0.51338,1.09442-0.63909,1.74304c-0.12615,0.64902-0.18883,1.31216-0.18883,1.98997

			c0,1.10383,0.08711,2.00447,0.26142,2.7016c0.17431,0.69728,0.41131,1.24914,0.7118,1.65584

			c0.3,0.4067,0.64862,0.68276,1.04576,0.82792c0.39667,0.1453,0.82792,0.21799,1.29269,0.21799

			c0.54207,0,1.15707-0.13537,1.84479-0.4067C14.35696,19.87818,15.03972,19.44244,15.71788,18.84195z"/>

	</g>

</g>

</svg>

